PathFileType	4	(X/Y/Z)	C:/Users/opensim2020/Desktop/walking_exp_matlab/subject06_walking20_straight_03.trc																																																																																																																															
DataRate	CameraRate	NumFrames	NumMarkers	Units	OrigDataRate	OrigDataStartFrame	OrigNumFrames																																																																																																																											
100	100	6	43	mm	100	1714	132																																																																																																																											
Frame#	Time	LFHD			RFHD			LBHD			RBHD			C7			T10			CLAV			STRN			RBAK			LSHO			LUPA			LELB			LFRM			LWRA			LWRB			LFIN			RSHO			RUPA			RELB			RFRM			RWRA			RWRB			RFIN			LASI			RASI			LPSI			RPSI			LTHI			LKNE			LTIB			LANK			LHEE			LTOE			RTHI			RKNE			RTIB			RANK			RHEE			RTOE			*39			*40			*41			*42		
		X1	Y1	Z1	X2	Y2	Z2	X3	Y3	Z3	X4	Y4	Z4	X5	Y5	Z5	X6	Y6	Z6	X7	Y7	Z7	X8	Y8	Z8	X9	Y9	Z9	X10	Y10	Z10	X11	Y11	Z11	X12	Y12	Z12	X13	Y13	Z13	X14	Y14	Z14	X15	Y15	Z15	X16	Y16	Z16	X17	Y17	Z17	X18	Y18	Z18	X19	Y19	Z19	X20	Y20	Z20	X21	Y21	Z21	X22	Y22	Z22	X23	Y23	Z23	X24	Y24	Z24	X25	Y25	Z25	X26	Y26	Z26	X27	Y27	Z27	X28	Y28	Z28	X29	Y29	Z29	X30	Y30	Z30	X31	Y31	Z31	X32	Y32	Z32	X33	Y33	Z33	X34	Y34	Z34	X35	Y35	Z35	X36	Y36	Z36	X37	Y37	Z37	X38	Y38	Z38	X39	Y39	Z39	X40	Y40	Z40	X41	Y41	Z41	X42	Y42	Z42	X43	Y43	Z43
																																																																																																																																		
34	0.33	-511.59113	1649.27563	-1044.83411	-524.22571	1629.53198	-915.00629	-645.75378	1601.44177	-1061.00037	-656.68726	1586.94824	-932.83698	-658.47253	1440.69055	-1010.77942	-714.95551	1115.5376	-1008.65332	-553.12878	1356.521	-1005.54242	-523.29218	1179.14294	-1015.94196	-743.37585	1275.45789	-941.80188	-600.54254	1395.34143	-1167.98999	-584.73914	1196.76758	-1240.21948	-569.31421	1085.58887	-1253.60474	-464.28229	983.23877	-1271.66943	-342.44775	950.65234	-1228.1228	-380.35706	897.89984	-1256.93799	-291.99454	878.55231	-1260.8324	-603.86786	1389.56738	-845.7843	-697.55896	1210.26086	-765.91895	-726.79681	1091.46436	-753.08948	-753.81854	974.43842	-732.76788	-741.6358	820.66132	-753.08118	-796.95929	843.28412	-721.39349	-792.43579	758.85834	-715.56628	-556.63647	937.87653	-1114.66028	-539.88312	956.49615	-896.69647	-709.6745	975.11371	-1077.89233	-691.68951	987.33978	-910.52679	-646.53687	621.42987	-1168.94812	-653.13715	458.09763	-1157.80798	-856.67126	311.93726	-1155.17615	-997.29413	217.48112	-1123.41809	-1026.4292	243.30643	-1076.94482	-965.99347	71.26263	-1120.98511	-533.2204	632.65564	-843.74585	-496.50842	516.49719	-881.52216	-521.9104	250.67552	-887.22412	-535.95996	67.63615	-938.05188	-578.52539	44.00331	-980.93988	-385.51364	35.79766	-945.86005	-615.22522	1687.80457	-992.59698	NaN	NaN	NaN	NaN	NaN	NaN	NaN	NaN	NaN
35	0.34	-498.82181	1651.39807	-1045.30383	-511.07358	1632.28613	-915.18756	-632.7276	1603.70581	-1061.04724	-643.50989	1589.50806	-932.82379	-645.07098	1443.14807	-1010.14728	-701.13019	1117.59106	-1007.05365	-539.55957	1358.93164	-1005.36212	-509.61438	1181.5719	-1015.39313	-729.4964	1277.57104	-939.90564	-588.28687	1397.12024	-1167.81104	-574.87268	1197.87976	-1239.4679	-560.06262	1086.36609	-1251.49365	-457.84265	980.8573	-1270.27991	-336.41248	944.80573	-1227.172	-376.246	893.52832	-1256.00415	-288.54324	870.93909	-1260.12793	-589.47699	1392.09131	-845.28687	-681.96661	1212.36169	-764.57611	-710.49597	1093.33582	-751.68549	-735.26208	975.63647	-731.71869	-720.35394	822.36359	-753.16656	-775.9903	843.83826	-720.35388	-768.81555	759.3714	-715.27258	-543.4173	940.24817	-1114.43372	-525.96527	958.0155	-896.08405	-696.52673	977.27386	-1077.17957	-678.30933	989.56689	-909.83466	-627.94214	623.37537	-1168.70435	-629.29877	460.14685	-1157.79407	-830.54224	316.1243	-1154.35083	-972.32965	220.67451	-1120.01514	-1002.18958	244.99055	-1073.04407	-936.0426	76.01865	-1120.72827	-524.5434	633.94098	-843.49219	-490.35156	516.6015	-880.62146	-519.72498	250.63626	-886.71436	-535.98553	67.56551	-938.17529	-578.72345	44.07134	-980.80737	-385.56039	35.66952	-945.80743	-602.1709	1690.22839	-992.87903	NaN	NaN	NaN	NaN	NaN	NaN	NaN	NaN	NaN
36	0.35	-485.92126	1653.66394	-1045.69604	-497.8132	1634.9176	-915.57507	-619.65546	1605.6156	-1061.10815	-630.19989	1591.68933	-932.85919	-631.40381	1445.2688	-1009.51764	-687.55524	1119.7052	-1005.45496	-526.02972	1361.12378	-1005.12976	-496.36057	1183.55713	-1015.08899	-715.75507	1279.74902	-938.03198	-575.80444	1398.83496	-1167.96387	-565.18738	1198.75122	-1238.38855	-551.05847	1087.1958	-1249.55896	-451.51825	978.58801	-1268.44006	-331.10791	938.47888	-1226.30334	-372.86099	888.68665	-1255.16968	-286.09549	862.84595	-1259.36768	-575.10016	1394.49011	-844.82996	-666.2605	1214.28503	-763.40253	-693.7995	1094.98755	-750.21423	-716.11267	976.85968	-730.29419	-698.2879	824.12128	-752.94952	-753.46173	843.88251	-719.52014	-744.35394	759.72797	-714.74243	-530.17633	942.61475	-1114.04968	-512.91907	959.8299	-895.78131	-683.4151	979.3465	-1076.84509	-665.09265	991.70544	-909.66504	-608.99554	625.66003	-1168.57361	-605.23651	462.59326	-1157.68823	-805.74286	318.66953	-1152.18164	-945.57489	221.23625	-1116.94006	-976.28021	244.41061	-1069.25769	-904.14655	79.41405	-1120.47729	-516.03461	634.94257	-843.32507	-484.30429	516.64899	-879.74017	-517.58466	250.54662	-886.17737	-536.00043	67.53309	-938.00232	-578.97858	44.09198	-980.60431	-385.62872	35.58335	-945.72253	-589.27368	1692.44897	-993.20929	NaN	NaN	NaN	NaN	NaN	NaN	NaN	NaN	NaN
37	0.36	-473.01749	1655.89001	-1046.12756	-484.67038	1637.48181	-915.92749	-606.68036	1607.32373	-1061.2074	-616.87903	1593.75293	-932.89435	-617.99512	1447.4729	-1008.91559	-674.22272	1121.91504	-1004.00269	-512.46851	1363.15454	-1004.89624	-482.9523	1185.67712	-1014.67303	-702.13428	1282.00879	-936.21442	-563.32794	1400.57996	-1167.63025	-555.23669	1199.81152	-1237.46997	-542.35431	1087.95374	-1247.64136	-446.00287	976.10437	-1267.12415	-326.5961	931.70667	-1225.49048	-370.24536	883.5246	-1254.41577	-284.55655	854.52094	-1258.8938	-560.85516	1396.75818	-844.38074	-650.31934	1216.02478	-762.05731	-676.6933	1096.44812	-748.78815	-696.60699	977.88641	-729.01672	-675.59052	825.85913	-752.62341	-731.38837	844.27545	-718.28668	-719.95502	760.37079	-714.23224	-516.88031	944.94916	-1113.58801	-499.58911	961.73383	-895.12933	-670.26642	981.39886	-1076.76855	-652.29749	993.87549	-909.44733	-589.79321	628.18939	-1168.49316	-581.2132	465.30093	-1157.45496	-779.64679	320.15796	-1149.92407	-917.98315	220.22183	-1114.1189	-949.1405	241.80757	-1065.68359	-871.72235	80.4491	-1120.77271	-507.28122	635.51929	-843.21149	-478.22372	516.36755	-879.31299	-515.14532	250.36502	-885.50745	-535.97791	67.57871	-937.53986	-579.10883	44.033	-980.40686	-385.6279	35.40468	-945.92743	-576.48193	1694.44299	-993.60864	NaN	NaN	NaN	NaN	NaN	NaN	NaN	NaN	NaN
38	0.37	-460.16171	1657.99512	-1046.6593	-471.4339	1639.8429	-916.33582	-593.64264	1608.79761	-1061.19543	-603.5932	1595.55005	-932.8056	-604.39752	1449.31201	-1008.21259	-660.95117	1124.11084	-1002.67896	-499.02426	1364.99988	-1004.6814	-469.60419	1187.6405	-1014.14221	-688.45221	1284.22107	-934.45276	-550.8219	1402.34155	-1167.36768	-545.11078	1200.89331	-1236.43408	-533.7464	1088.6637	-1246.14087	-440.87228	973.46075	-1265.75684	-322.83459	924.56146	-1224.77747	-368.55405	878.28809	-1253.77405	-284.10391	845.83551	-1258.58179	-546.68909	1398.92432	-843.90533	-634.4187	1217.55908	-760.62195	-659.3598	1097.74695	-747.33069	-676.71741	978.78503	-727.72595	-652.42664	827.57013	-752.28436	-708.13068	844.44305	-717.38989	-694.10132	760.64807	-713.53101	-503.54672	947.22241	-1113.02966	-487.19022	963.58813	-894.91028	-657.13806	983.44263	-1076.60986	-639.19769	995.87897	-909.41473	-570.53741	630.80725	-1168.46985	-557.15149	468.23654	-1157.17761	-752.99652	320.5184	-1148.03345	-889.41901	217.58162	-1111.54553	-921.13831	237.5722	-1062.49475	-837.31506	80.75721	-1119.65637	-498.46765	635.89996	-843.01385	-472.14871	515.88379	-879.12976	-512.73303	250.09731	-884.73267	-535.90405	67.52309	-937.24969	-579.24414	44.0766	-980.07275	-385.54306	35.23928	-946.25781	-563.60431	1696.26807	-993.99567	NaN	NaN	NaN	NaN	NaN	NaN	NaN	NaN	NaN
39	0.38	-447.14587	1659.91895	-1046.96777	-458.18158	1641.91187	-916.81323	-580.70068	1610.10974	-1061.24561	-590.15106	1597.18018	-932.7948	-590.94275	1451.07495	-1007.54633	-647.86859	1126.18408	-1001.55438	-485.62402	1366.68787	-1004.39423	-456.75287	1189.1051	-1013.83203	-674.95422	1286.39771	-932.90454	-538.05115	1403.70447	-1166.81201	-534.63	1201.97229	-1235.42126	-525.40411	1089.4519	-1244.79944	-436.30283	970.62769	-1264.49512	-319.93088	917.04718	-1224.14001	-367.64798	872.74707	-1253.22974	-284.62994	836.94629	-1258.42383	-532.52478	1400.93945	-843.50635	-618.29022	1218.97681	-759.24738	-641.91858	1098.8949	-745.85626	-656.50616	979.62732	-726.39301	-628.96228	829.33588	-752.06458	-684.40601	844.63483	-716.23096	-668.30322	761.30341	-712.72095	-490.19125	949.39496	-1112.51868	-474.6756	965.15173	-894.31195	-643.97821	985.42529	-1076.37305	-626.43866	997.72284	-909.10889	-551.4458	633.40076	-1168.42004	-533.21399	471.30899	-1156.8645	-726.41376	320.08902	-1146.58923	-859.64355	213.55304	-1109.18384	-892.06122	231.68033	-1059.6084	-801.4599	79.93655	-1119.55615	-490.16779	635.80237	-842.77856	-466.28378	515.18347	-878.85864	-510.35513	249.87892	-884.28918	-535.71136	67.44973	-936.94855	-579.35059	44.29313	-979.6853	-385.13388	34.90462	-946.12909	-550.70142	1697.90173	-994.35187	NaN	NaN	NaN	NaN	NaN	NaN	NaN	NaN	NaN
